<svg width="17" height="12" viewBox="0 0 17 12" fill="none" xmlns="http://www.w3.org/2000/svg">
<path d="M12.4758 0.299805V11.4678H10.2358V4.2038L7.2438 11.4678H5.5478L2.5398 4.2038V11.4678H0.299805V0.299805H2.8438L6.3958 8.6038L9.94781 0.299805H12.4758Z" fill="white"/>
<path d="M15.5224 11.5798C15.1918 11.5798 14.9144 11.4678 14.6904 11.2438C14.4664 11.0198 14.3544 10.7425 14.3544 10.4118C14.3544 10.0811 14.4664 9.8038 14.6904 9.5798C14.9144 9.3558 15.1918 9.2438 15.5224 9.2438C15.8424 9.2438 16.1144 9.3558 16.3384 9.5798C16.5624 9.8038 16.6744 10.0811 16.6744 10.4118C16.6744 10.7425 16.5624 11.0198 16.3384 11.2438C16.1144 11.4678 15.8424 11.5798 15.5224 11.5798Z" fill="#C332B4"/>
<path d="M15.5225 9.09375C15.8817 9.09376 16.1919 9.22128 16.4443 9.47363C16.6978 9.72711 16.8242 10.0436 16.8242 10.4121C16.8241 10.7805 16.6977 11.0962 16.4443 11.3496C16.1919 11.6021 15.8818 11.7295 15.5225 11.7295C15.154 11.7295 14.8375 11.6031 14.584 11.3496C14.3308 11.0963 14.2042 10.7803 14.2041 10.4121C14.2041 10.0437 14.3306 9.72709 14.584 9.47363C14.8375 9.22016 15.154 9.09375 15.5225 9.09375ZM2.94238 0.149414L2.98145 0.241211L6.39551 8.22168L9.80957 0.241211L9.84863 0.149414H12.626V11.6182H10.0859V4.95996L7.38281 11.5254L7.34473 11.6182H5.44727L5.40918 11.5254L2.68945 4.95605V11.6182H0.149414V0.149414H2.94238Z" stroke="black" stroke-width="0.3"/>
</svg>
